<svg xmlns="http://www.w3.org/2000/svg" viewBox="0 0 81 77"><defs><style>.cls-1{fill:#639627;}.cls-2{fill:#71ac2d;}.cls-3{fill:#fff;}</style></defs><title>guia</title><g id="Segunda_prop" data-name="Segunda prop"><path class="cls-1" d="M43.08,48.66h-8a6.27,6.27,0,0,1-6.27-6.27V19.46A6.27,6.27,0,0,1,35.1,13.2H58a6.27,6.27,0,0,1,6.27,6.27v8a2,2,0,0,1-4,0v-8A2.27,2.27,0,0,0,58,17.2H35.1a2.27,2.27,0,0,0-2.27,2.27V42.4a2.27,2.27,0,0,0,2.27,2.27h8a2,2,0,0,1,0,4Z"/><path class="cls-2" d="M45.38,71.5H7.92V35.66A35.2,35.2,0,0,1,43.08.5H80.54V36.34a1.5,1.5,0,0,1-3,0V3.5H43.08A32.2,32.2,0,0,0,10.92,35.66V68.5H45.38a31.8,31.8,0,0,0,14.76-3.59,1.5,1.5,0,1,1,1.38,2.66A34.77,34.77,0,0,1,45.38,71.5Z"/><path class="cls-2" d="M75.81,56.82,68.42,48.1l6.15-2.91a1,1,0,0,0,0-1.87l-24-11.93a1,1,0,0,0-1.46,1.24L57,58.25a1,1,0,0,0,1.85.29l3.87-5.6,7.39,8.71a1,1,0,0,0,1.47.12l4.12-3.5a1,1,0,0,0,.12-1.47Zm0,0Z"/><circle class="cls-3" cx="12.01" cy="64.94" r="10.82"/><path class="cls-1" d="M12,77.26A12.32,12.32,0,1,1,24.33,64.94,12.34,12.34,0,0,1,12,77.26Zm0-21.64a9.32,9.32,0,1,0,9.32,9.32A9.33,9.33,0,0,0,12,55.62Z"/><path class="cls-2" d="M13,69H11.21V61.38l-2.1,1.27-.78-1.21,3.07-1.88H13Z"/></g></svg>