<svg xmlns="http://www.w3.org/2000/svg" viewBox="0 0 83 77"><defs><style>.cls-1{fill:#71ac2d;}.cls-2{fill:#639627;}.cls-3{fill:#fff;}</style></defs><title>guia</title><g id="Segunda_prop" data-name="Segunda prop"><path class="cls-1" d="M45.25,71.5H7.79V35.66A35.2,35.2,0,0,1,43,.5H80.42V11.76a1.5,1.5,0,1,1-3,0V3.5H43A32.2,32.2,0,0,0,10.79,35.66V68.5H45.25A31.8,31.8,0,0,0,60,64.91a1.5,1.5,0,0,1,1.38,2.66A34.77,34.77,0,0,1,45.25,71.5Z"/><path class="cls-1" d="M63.48,35.28a12.75,12.75,0,0,1-3.75-9H49.07l-1.67-7.18-9-3.11L36.7,20.86,43.05,23l4.52,19.43,1.55,6.83H76l2.68-11.84a12.82,12.82,0,0,1-15.23-2.18Zm0,0Z"/><path class="cls-1" d="M59.31,57.08A5.06,5.06,0,1,1,54.25,52a5.06,5.06,0,0,1,5.06,5.06Zm0,0Z"/><path class="cls-1" d="M75.95,57.08A5.06,5.06,0,1,1,70.89,52a5.06,5.06,0,0,1,5.06,5.06Zm0,0Z"/><path class="cls-2" d="M72.55,36.55h0a10.34,10.34,0,0,0,0-20.69h0a10.34,10.34,0,0,0,0,20.69ZM69.16,25.33l2,2,4.81-4.81,1.76,1.76-6.57,6.57-3.72-3.72Zm0,0Z"/><path class="cls-2" d="M37.87,38.58l-6-6a.6.6,0,0,0-1,.42v2.44a.6.6,0,0,1-.6.6H19.49a.6.6,0,0,0-.6.6v4.77a.6.6,0,0,0,.6.6H30.23a.6.6,0,0,1,.6.6V45a.6.6,0,0,0,1,.42l6-6A.6.6,0,0,0,37.87,38.58Z"/><circle class="cls-3" cx="12.01" cy="64.94" r="10.82"/><path class="cls-2" d="M12,77.26A12.32,12.32,0,1,1,24.33,64.94,12.34,12.34,0,0,1,12,77.26Zm0-21.64a9.32,9.32,0,1,0,9.32,9.32A9.33,9.33,0,0,0,12,55.62Z"/><path class="cls-1" d="M14.33,62.05c0,1.6-.91,2.76-3.82,5.53h4L14.35,69H8.48V67.68c3.22-3.28,4-4.16,4-5.49a1.27,1.27,0,0,0-1.36-1.37,2.24,2.24,0,0,0-1.82,1l-1.09-.87a3.69,3.69,0,0,1,3.05-1.54C13.21,59.4,14.33,60.58,14.33,62.05Z"/></g></svg>