<svg xmlns="http://www.w3.org/2000/svg" viewBox="0 0 80 77"><defs><style>.cls-1{fill:#71ac2d;}.cls-2{fill:#639627;}.cls-3{fill:#fff;}</style></defs><title>guia</title><g id="Segunda_prop" data-name="Segunda prop"><path class="cls-1" d="M45.1,71.5H7.64V35.66A35.2,35.2,0,0,1,42.8.5H80.27V36.34a1.5,1.5,0,0,1-3,0V3.5H42.8A32.2,32.2,0,0,0,10.64,35.66V68.5H45.1a31.8,31.8,0,0,0,14.76-3.59,1.5,1.5,0,0,1,1.38,2.66A34.77,34.77,0,0,1,45.1,71.5Z"/><polygon class="cls-2" points="30.78 12.22 64.12 12 64.41 56.78 31.07 57 30.78 12.22 30.78 12.22"/><circle class="cls-3" cx="65.01" cy="50.94" r="10.82"/><path class="cls-2" d="M65,63.26A12.32,12.32,0,1,1,77.33,50.94,12.34,12.34,0,0,1,65,63.26Zm0-21.64a9.32,9.32,0,1,0,9.32,9.32A9.33,9.33,0,0,0,65,41.62Z"/><path class="cls-2" d="M64.94,56.36,59.06,49a1.5,1.5,0,1,1,2.35-1.87l3.38,4.23,8.53-12.27a1.5,1.5,0,0,1,2.46,1.71Z"/><path class="cls-3" d="M57.55,24.33H37.4a1,1,0,0,1,0-2H57.55a1,1,0,0,1,0,2Z"/><path class="cls-3" d="M57.55,32.54H37.4a1,1,0,0,1,0-2H57.55a1,1,0,1,1,0,2Z"/><path class="cls-3" d="M57.55,40H37.4a1,1,0,0,1,0-2H57.55a1,1,0,0,1,0,2Z"/><path class="cls-3" d="M57.55,48.21H37.4a1,1,0,0,1,0-2H57.55a1,1,0,0,1,0,2Z"/><circle class="cls-3" cx="12.01" cy="64.94" r="10.82"/><path class="cls-2" d="M12,77.26A12.32,12.32,0,1,1,24.33,64.94,12.34,12.34,0,0,1,12,77.26Zm0-21.64a9.32,9.32,0,1,0,9.32,9.32A9.33,9.33,0,0,0,12,55.62Z"/><path class="cls-1" d="M14.23,61.8A2.21,2.21,0,0,1,12.4,64a2.18,2.18,0,0,1,2.14,2.3c0,1.61-1.26,2.9-3.42,2.9a3.79,3.79,0,0,1-3.05-1.36l1-1a2.63,2.63,0,0,0,2,.91,1.52,1.52,0,0,0,1.67-1.58c0-1.12-.63-1.51-1.69-1.51h-.74l.21-1.27H11A1.37,1.37,0,0,0,12.48,62a1.22,1.22,0,0,0-1.39-1.23,2.6,2.6,0,0,0-1.89.83l-.91-1a4.15,4.15,0,0,1,3-1.2C13.2,59.4,14.23,60.5,14.23,61.8Z"/></g></svg>