<svg xmlns="http://www.w3.org/2000/svg" viewBox="0 0 92 77"><defs><style>.cls-1{fill:#639627;}.cls-2{fill:#71ac2d;}.cls-3{fill:#fff;}</style></defs><title>guia</title><g id="Segunda_prop" data-name="Segunda prop"><polygon class="cls-1" points="35.2 22.95 70.28 22.95 52.04 35.27 35.2 22.95"/><polygon class="cls-2" points="72.47 49.61 72.47 23.1 54.12 36.01 72.47 49.61"/><polygon class="cls-1" points="52.03 37.51 50.84 36.42 35.65 49.88 68.79 49.88 53.38 36.37 52.03 37.51"/><path class="cls-2" d="M84,24.92v5.19H78.76V24.92Zm2-2H76.76v9.19H86V22.92Z"/><path class="cls-2" d="M84,42.69v5.19H78.76V42.69Zm2-2H76.76v9.19H86V40.69Z"/><path class="cls-2" d="M50.17,36.12,32.64,22.83V13.11H28a4.61,4.61,0,0,0-4.6,4.6v.58h0V24.7a3.23,3.23,0,0,0,3,3.06,3.74,3.74,0,0,1-.49,0,3.3,3.3,0,0,1-3.45-3.1V22.92H11.9c-4.79,0-7.78,4.68-6.81,9.56l2.6,13.06c.5,2.5,3.18,4.34,6,4.34H25.28A7.38,7.38,0,0,0,32,45.45v4Z"/><path class="cls-2" d="M16.19,16.62A1.5,1.5,0,0,1,15,14.2,34.94,34.94,0,0,1,42.85.5H80.31V12.88a1.5,1.5,0,1,1-3,0V3.5H42.85A32,32,0,0,0,17.38,16,1.5,1.5,0,0,1,16.19,16.62Z"/><path class="cls-2" d="M45.15,71.5H7.65L8,58a1.5,1.5,0,0,1,1.5-1.47h0A1.5,1.5,0,0,1,11,58.07L10.72,68.5H45.15A32,32,0,0,0,72.58,53.14a1.5,1.5,0,1,1,2.56,1.57A35,35,0,0,1,45.15,71.5Z"/><path class="cls-1" d="M82.54,29.93l-4.78-6a1,1,0,0,1,1.56-1.25l3.1,3.89L89.9,15.84A1,1,0,1,1,91.54,17Z"/><circle class="cls-3" cx="12.01" cy="64.94" r="10.82"/><path class="cls-1" d="M12,77.26A12.32,12.32,0,1,1,24.33,64.94,12.34,12.34,0,0,1,12,77.26Zm0-21.64a9.32,9.32,0,1,0,9.32,9.32A9.33,9.33,0,0,0,12,55.62Z"/><path class="cls-2" d="M15.35,66.84H14.22V69H12.47V66.84h-4V65.61l2.75-6.22,1.53.57-2.41,5.5h2.16l.18-2.37h1.56v2.37h1.13Z"/></g></svg>