<svg xmlns="http://www.w3.org/2000/svg" viewBox="0 0 80 77"><defs><style>.cls-1{fill:#c1daa3;}.cls-2{fill:#71ac2d;}.cls-3{fill:#639627;}.cls-4{fill:#fff;}</style></defs><title>guia</title><g id="Segunda_prop" data-name="Segunda prop"><polygon class="cls-1" points="25.72 26.06 30.75 26.06 30.75 50.6 25.72 50.6 25.72 26.06 25.72 26.06"/><polygon class="cls-1" points="63.65 26.06 68.67 26.06 68.67 50.6 63.65 50.6 63.65 26.06 63.65 26.06"/><polygon class="cls-1" points="51.17 26.06 56.2 26.06 56.2 50.6 51.17 50.6 51.17 26.06 51.17 26.06"/><polygon class="cls-1" points="38.2 26.06 43.22 26.06 43.22 50.6 38.2 50.6 38.2 26.06 38.2 26.06"/><polygon class="cls-2" points="23.21 48.74 71.18 48.74 71.18 56.18 23.21 56.18 23.21 48.74 23.21 48.74"/><polygon class="cls-2" points="71.18 22.47 23.21 22.47 47.2 7.59 71.18 22.47 71.18 22.47"/><polygon class="cls-3" points="23.21 22.47 71.18 22.47 71.18 27.43 23.21 27.43 23.21 22.47 23.21 22.47"/><polygon class="cls-3" points="20.7 53.7 73.69 53.7 73.69 59.9 20.7 59.9 20.7 53.7 20.7 53.7"/><path class="cls-2" d="M44.83,71.5H7.36V35.66A35.2,35.2,0,0,1,42.52.5H80v34a1.5,1.5,0,1,1-3,0V3.5H42.52A32.2,32.2,0,0,0,10.36,35.66V68.5H44.83a32.1,32.1,0,0,0,16.68-4.66,1.5,1.5,0,0,1,1.56,2.56A35.1,35.1,0,0,1,44.83,71.5Z"/><circle class="cls-4" cx="12.01" cy="64.94" r="10.82"/><path class="cls-3" d="M12,77.26A12.32,12.32,0,1,1,24.33,64.94,12.34,12.34,0,0,1,12,77.26Zm0-21.64a9.32,9.32,0,1,0,9.32,9.32A9.33,9.33,0,0,0,12,55.62Z"/><path class="cls-2" d="M14.15,60.9H10.62v2.34A3.21,3.21,0,0,1,12,62.89c1.57,0,2.7,1.12,2.7,3a3.22,3.22,0,0,1-3.52,3.28,3.81,3.81,0,0,1-3-1.33l1-1a2.45,2.45,0,0,0,1.9.9,1.65,1.65,0,0,0,1.71-1.89c0-1.3-.64-1.75-1.51-1.75a2.48,2.48,0,0,0-1.22.32H8.9V59.57h5.46Z"/></g></svg>