<svg xmlns="http://www.w3.org/2000/svg" viewBox="0 0 93 77"><defs><style>.cls-1{fill:#639627;}.cls-2{fill:#71ac2d;}.cls-3{fill:#fff;}</style></defs><title>guia</title><g id="Segunda_prop" data-name="Segunda prop"><polygon class="cls-1" points="36 22.7 71.08 22.7 52.84 35.02 36 22.7"/><polygon class="cls-2" points="73.27 49.36 73.27 22.85 54.92 35.76 73.27 49.36"/><polygon class="cls-1" points="52.83 37.26 51.63 36.17 36.44 49.63 69.58 49.63 54.17 36.12 52.83 37.26"/><path class="cls-2" d="M84.75,24.67v5.19H79.56V24.67Zm2-2H77.56v9.19h9.19V22.67Z"/><path class="cls-2" d="M84.75,42.44v5.19H79.56V42.44Zm2-2H77.56v9.19h9.19V40.44Z"/><path class="cls-2" d="M51,35.87,33.43,22.58V12.86h-4.6a4.61,4.61,0,0,0-4.6,4.6V18h0v6.41a3.23,3.23,0,0,0,3,3.06,3.74,3.74,0,0,1-.49,0,3.3,3.3,0,0,1-3.45-3.1V22.67H12.69c-4.79,0-7.78,4.68-6.81,9.56l2.6,13.06c.5,2.5,3.18,4.34,6,4.34H26.08a7.38,7.38,0,0,0,6.74-4.43v4Z"/><path class="cls-2" d="M17,16.37a1.5,1.5,0,0,1-1.19-2.42A34.94,34.94,0,0,1,43.64.25H81.11V12.63a1.5,1.5,0,1,1-3,0V3.25H43.64A32,32,0,0,0,18.17,15.78,1.5,1.5,0,0,1,17,16.37Z"/><path class="cls-2" d="M45.94,71.25H8.45l.3-13.5a1.5,1.5,0,0,1,1.5-1.47h0a1.5,1.5,0,0,1,1.47,1.53l-.23,10.43H45.94A32,32,0,0,0,73.37,52.89a1.5,1.5,0,1,1,2.56,1.57A35,35,0,0,1,45.94,71.25Z"/><path class="cls-1" d="M83.61,29.68l-4.78-6a1,1,0,1,1,1.56-1.25l3.1,3.89L91,15.59a1,1,0,1,1,1.64,1.14Z"/><path class="cls-1" d="M83.61,47.13l-4.78-6A1,1,0,1,1,80.4,39.9l3.1,3.89L91,33a1,1,0,1,1,1.64,1.14Z"/><circle class="cls-3" cx="13.22" cy="64.69" r="10.82"/><path class="cls-1" d="M13.22,77A12.32,12.32,0,1,1,25.54,64.69,12.34,12.34,0,0,1,13.22,77Zm0-21.64a9.32,9.32,0,1,0,9.32,9.32A9.33,9.33,0,0,0,13.22,55.37Z"/><path class="cls-2" d="M15.47,65.54A3.2,3.2,0,0,1,12.24,69c-2.41,0-3.4-1.86-3.4-4.57,0-3.15,1.47-5.24,3.87-5.24a3.65,3.65,0,0,1,2.06.6l-.67,1.11a2.64,2.64,0,0,0-1.36-.38c-1.19,0-1.95,1.13-2,3a2.63,2.63,0,0,1,2.12-1C14.27,62.47,15.47,63.54,15.47,65.54Zm-1.81,0c0-1.34-.49-1.79-1.29-1.79a2.13,2.13,0,0,0-1.67,1c0,2,.46,2.89,1.54,2.89S13.66,66.8,13.66,65.57Z"/></g></svg>