<?xml version="1.0" encoding="utf-8"?>
<!-- Generator: Adobe Illustrator 21.0.0, SVG Export Plug-In . SVG Version: 6.00 Build 0)  -->
<svg version="1.1" id="Capa_1" xmlns="http://www.w3.org/2000/svg" xmlns:xlink="http://www.w3.org/1999/xlink" x="0px" y="0px"
	 viewBox="0 0 279.6 91.1" style="enable-background:new 0 0 279.6 91.1;" xml:space="preserve">
<style type="text/css">
	.st0{fill:url(#SVGID_1_);}
	.st1{fill:#FBFAF8;}
	.st2{fill:url(#SVGID_2_);}
	.st3{enable-background:new    ;}
</style>
<title>Recurso 1</title>
<g id="Capa_1-2">
	
		<linearGradient id="SVGID_1_" gradientUnits="userSpaceOnUse" x1="46.785" y1="1699.53" x2="46.785" y2="1608.4301" gradientTransform="matrix(1 0 0 1 -0.14 -1608.4301)">
		<stop  offset="0" style="stop-color:#71AC2D"/>
		<stop  offset="0.29" style="stop-color:#6FA92C"/>
		<stop  offset="0.46" style="stop-color:#6AA129"/>
		<stop  offset="0.6" style="stop-color:#609324"/>
		<stop  offset="0.72" style="stop-color:#527F1D"/>
		<stop  offset="0.79" style="stop-color:#487018"/>
	</linearGradient>
	<path class="st0" d="M86.8,6.6V46c0,21.3-17.3,38.5-38.6,38.6H6.5V45.1c0-21.3,17.3-38.5,38.6-38.5H86.8 M93.3,0H45.1
		C20.2,0,0,20.2,0,45.1c0,0,0,0,0,0l0,0v46h48.2c24.9,0,45.1-20.2,45.1-45.1V0z"/>
	<path class="st1" d="M73.2,40.6C67,44.8,52.4,59.4,37.7,74.3l-0.2,0.2C34.9,77,33.3,78,29.4,78h-1.8c-4.7,0-8.5-1.2-8.5-7.7
		c-0.1-1.9,0.2-3.7,0.9-5.4l0.8-1.5l10.4-19.4L21,53.9l-2.2-1.5l17-17h13.8L33.5,65.3L32,68l-0.5,1l-1.3,2.4
		C30,71.6,30,71.9,30,72.2c0,1.2,0.9,2.1,2.1,2.1c0.6,0,1.1-0.2,1.5-0.6C47.9,60.6,68.8,38.8,73.2,40.6z"/>
	<path class="st1" d="M55.3,21c0.9-3.5-1.3-6.4-4.8-6.4c-3.8,0.2-7,2.7-8,6.4c-0.9,3.5,1.3,6.4,4.8,6.4C51,27.1,54.2,24.6,55.3,21z"
		/>
	<path class="st1" d="M114.2,47.2h-7.7l5.1-36.5h7.7L114.2,47.2z"/>
	<path class="st1" d="M147.6,27.1l-2.8,20.1h-7.4l2.6-18.7c0.4-3.1-0.5-3.9-2-3.9c-2.5,0-4.8,3-6.8,6.9l-2.2,15.7h-7.4l3.9-28h6.4
		l-0.1,5.1c2.4-3.6,5.8-5.9,9.6-5.9C145.9,18.4,148.4,21.6,147.6,27.1z"/>
	<path class="st1" d="M174.3,22l-3.3,4.2c-1.9-1.4-4.2-2.2-6.6-2.3c-2.7,0-4.2,1.1-4.2,2.6s1.3,2.2,5.4,3.6c4.9,1.5,7.4,4,7.4,8.4
		c0,5.4-4.3,9.5-12.3,9.5c-4.2,0.1-8.4-1.5-11.4-4.5l3.8-4c2.1,1.9,4.8,3,7.7,3c3.4,0,4.8-1.6,4.8-3.2c0-2.1-1.2-2.7-5.6-4.2
		c-5-1.6-7.2-4-7.2-8c0-4.5,3.9-8.8,11.6-8.8C168,18.4,171.5,19.6,174.3,22z"/>
	<path class="st1" d="M177.5,39.2l2.9-20h7.4l-2.6,18.9c-0.4,3.1,0.4,4,2.1,4c2.4,0,4.4-2.4,6.1-4.9l2.5-18h7.4l-3.9,28h-6.4
		l0.3-4.4c-2.5,3.2-5.3,5.2-9,5.2C179,48.1,176.7,44.6,177.5,39.2z"/>
	<path class="st1" d="M227.4,18.9l-2.1,7.3c-0.8-0.3-1.6-0.4-2.4-0.4c-3.5,0-5.5,3.3-7.1,8l-1.9,13.4h-7.4l3.9-28h6.4l-0.2,5.3
		c2-4.1,4.9-6.1,8-6.1C225.6,18.5,226.5,18.6,227.4,18.9z"/>
	<path class="st1" d="M248.6,28.3l-2.6,2.6c-1.1-1.1-2.7-1.8-4.3-1.7c-1.9,0-3.2,0.9-3.2,2.4c0,1.2,0.8,1.8,3.6,2.7
		c3.4,1.1,5.4,2.8,5.4,6c0,3.5-2.4,7.5-9.1,7.5c-2.9,0.1-5.7-1-7.7-3.1l2.8-2.8c1.3,1.4,3.1,2.1,5,2.1c2.3,0,3.7-1.1,3.7-2.9
		c0-1.4-0.8-2.1-3.3-3c-4-1.3-5.6-3.1-5.6-5.9c0-3.2,2.6-6.6,8.2-6.6C244.2,25.4,246.8,26.4,248.6,28.3z"/>
	<path class="st1" d="M248.6,45.3c0-1.7,1.3-3,3-3c1.3,0,2.4,1,2.4,2.3c0,0,0,0,0,0c0,0.1,0,0.1,0,0.2c0,1.7-1.3,3-2.9,3.1
		c0,0,0,0,0,0H251c-1.3,0-2.4-1-2.4-2.3C248.6,45.4,248.6,45.3,248.6,45.3z"/>
	<path class="st1" d="M267.4,42.7h-6.1l-1.7,4.6h-5.1l9.3-21.2h6l3.3,21.2h-5.2L267.4,42.7z M267,39l-0.9-9.6l-3.5,9.6H267z"/>
	<path class="st1" d="M274.1,45.3c0-1.7,1.3-3,3-3c1.3,0,2.4,1,2.4,2.3c0,0,0,0,0,0c0,0.1,0,0.1,0,0.2c0,1.7-1.3,3-2.9,3.1
		c0,0,0,0,0,0h-0.1c-1.3,0-2.4-1-2.4-2.3C274.1,45.4,274.1,45.3,274.1,45.3z"/>
	
		<linearGradient id="SVGID_2_" gradientUnits="userSpaceOnUse" x1="106.7" y1="1662.415" x2="277.94" y2="1662.415" gradientTransform="matrix(1 0 0 1 -0.14 -1608.4301)">
		<stop  offset="0" style="stop-color:#71AC2D"/>
		<stop  offset="0.29" style="stop-color:#6FA92C"/>
		<stop  offset="0.46" style="stop-color:#6AA129"/>
		<stop  offset="0.6" style="stop-color:#609324"/>
		<stop  offset="0.72" style="stop-color:#527F1D"/>
		<stop  offset="0.79" style="stop-color:#487018"/>
	</linearGradient>
	<rect x="106.6" y="52.3" class="st2" width="171.2" height="3.3"/>
</g>
<g id="Segunda_prop">
	<g>
		<g class="st3">
			<path class="st1" d="M147.9,69c0,2.7-1.9,4-4.7,4H142v3.9h-2.8V65.1h3.8C146.1,65.1,147.9,66.4,147.9,69z M145.1,69
				c0-1.3-0.7-1.9-2.1-1.9h-1V71h1C144.3,71,145.1,70.4,145.1,69z"/>
		</g>
		<g class="st3">
			<path class="st1" d="M153.9,74.4h-3.4l-0.6,2.5H147l3.6-11.8h3.4l3.6,11.8h-3L153.9,74.4z M153.4,72.3l-1.2-5.2l-1.2,5.2H153.4z"
				/>
		</g>
		<g class="st3">
			<path class="st1" d="M162.1,72.4h-1.1v4.5h-2.8V65.1h3.9c3.2,0,4.8,1.1,4.8,3.6c0,1.5-0.7,2.5-2.3,3.2l3,5h-3.1L162.1,72.4z
				 M161.1,70.5h1.2c1.2,0,1.9-0.5,1.9-1.8c0-1.1-0.7-1.6-2-1.6h-1V70.5z"/>
		</g>
		<g class="st3">
			<path class="st1" d="M176.2,67.3h-2.9v9.6h-2.8v-9.6h-3v-2.1h9L176.2,67.3z"/>
		</g>
		<g class="st3">
			<path class="st1" d="M184.4,67.1h-4.1v2.8h3.6v2h-3.6v3h4.4v2h-7.2V65.1h7.2L184.4,67.1z"/>
		</g>
		<g class="st3">
			<path class="st1" d="M194.1,66.3l-1.3,1.5c-0.8-0.7-1.6-1-2.6-1c-1,0-1.6,0.4-1.6,1.2s0.4,1.1,2.3,1.6c2.2,0.7,3.5,1.6,3.5,3.8
				c0,2.2-1.7,3.7-4.7,3.7c-2,0-3.5-0.7-4.5-1.7l1.4-1.5c0.9,0.7,1.8,1.2,3,1.2c1.2,0,1.9-0.5,1.9-1.4c0-0.9-0.4-1.3-2.2-1.8
				c-2.6-0.8-3.6-1.9-3.6-3.7c0-2.1,1.8-3.4,4.2-3.4C191.8,64.8,193.1,65.4,194.1,66.3z"/>
			<path class="st1" d="M209.4,71c0,4.7-2.9,5.9-5.9,5.9H200V65.1h3.3C206.4,65.1,209.4,66.1,209.4,71z M202.8,67.1v7.7h0.9
				c1.7,0,2.8-0.8,2.8-3.9c0-3.2-1.2-3.8-2.8-3.8H202.8z"/>
			<path class="st1" d="M218,67.1h-4.1v2.8h3.6v2h-3.6v3h4.4v2h-7.2V65.1h7.2L218,67.1z"/>
		</g>
		<g class="st3">
			<path class="st1" d="M235.9,76.9h-2.7l-0.2-4.6c-0.1-1.6-0.1-3.3,0-4.8l-1.8,8.2h-2.6l-1.9-8.2c0.1,1.7,0.1,3.2,0.1,4.8l-0.2,4.6
				h-2.7l0.9-11.8h3.5l1.8,8l1.6-8h3.5L235.9,76.9z"/>
		</g>
		<g class="st3">
			<path class="st1" d="M247.4,71c0,3.9-2,6.2-5.3,6.2c-3.3,0-5.3-2.3-5.3-6.2c0-3.8,2-6.2,5.3-6.2C245.4,64.8,247.4,67.1,247.4,71z
				 M239.7,71c0,3,0.8,4.1,2.4,4.1c1.6,0,2.4-1.2,2.4-4.1c0-3-0.8-4.1-2.4-4.1C240.5,66.9,239.7,68,239.7,71z"/>
		</g>
		<g class="st3">
			<path class="st1" d="M255.8,67.3h-2.9v9.6h-2.8v-9.6h-3v-2.1h9L255.8,67.3z"/>
		</g>
		<g class="st3">
			<path class="st1" d="M267,71c0,3.9-2,6.2-5.3,6.2c-3.3,0-5.3-2.3-5.3-6.2c0-3.8,2-6.2,5.3-6.2C265.1,64.8,267,67.1,267,71z
				 M259.3,71c0,3,0.8,4.1,2.4,4.1c1.6,0,2.4-1.2,2.4-4.1c0-3-0.8-4.1-2.4-4.1C260.2,66.9,259.3,68,259.3,71z"/>
			<path class="st1" d="M272.6,72.4h-1.1v4.5h-2.8V65.1h3.9c3.2,0,4.8,1.1,4.8,3.6c0,1.5-0.7,2.5-2.3,3.2l3,5H275L272.6,72.4z
				 M271.5,70.5h1.2c1.2,0,1.9-0.5,1.9-1.8c0-1.1-0.7-1.6-2-1.6h-1V70.5z"/>
		</g>
	</g>
</g>
</svg>
